<svg width="38" height="17" viewBox="0 0 38 17" fill="none" xmlns="http://www.w3.org/2000/svg">
<path d="M6.50391 8.80859L6.85547 12.6172L6.50391 16.6016C6.50391 16.7773 6.38672 16.8359 6.26953 16.8359C6.09375 16.8359 5.97656 16.7773 5.97656 16.6016L5.68359 12.6172L5.97656 8.80859C5.97656 8.69141 6.09375 8.57422 6.26953 8.57422C6.38672 8.57422 6.50391 8.69141 6.50391 8.80859ZM7.73438 6.11328C7.91016 6.11328 8.02734 6.23047 8.02734 6.40625L8.37891 12.6172L8.02734 16.6016C8.02734 16.7773 7.91016 16.8945 7.73438 16.8945C7.61719 16.8945 7.5 16.7773 7.44141 16.6016L7.14844 12.6172L7.44141 6.40625C7.5 6.23047 7.61719 6.11328 7.73438 6.11328ZM9.25781 4.70703C9.43359 4.70703 9.55078 4.82422 9.55078 5L9.84375 12.6172L9.55078 16.6016C9.55078 16.7773 9.43359 16.8945 9.25781 16.8945C9.08203 16.8945 8.96484 16.7773 8.90625 16.6016L8.67188 12.6172L8.90625 5C8.96484 4.82422 9.08203 4.70703 9.25781 4.70703ZM0.410156 10.3906C0.46875 10.3906 0.527344 10.4492 0.527344 10.5078L0.878906 12.6172L0.527344 14.668C0.527344 14.7266 0.46875 14.7852 0.410156 14.7852C0.292969 14.7852 0.292969 14.7266 0.234375 14.668L0 12.6172L0.234375 10.5078C0.292969 10.4492 0.292969 10.3906 0.410156 10.3906ZM1.75781 9.10156C1.875 9.10156 1.93359 9.16016 1.93359 9.21875L2.34375 12.6172L1.93359 15.8984C1.93359 16.0156 1.875 16.0742 1.75781 16.0742C1.69922 16.0742 1.64062 16.0156 1.64062 15.8984L1.23047 12.6172L1.64062 9.21875C1.64062 9.16016 1.69922 9.10156 1.75781 9.10156ZM3.28125 8.39844C3.33984 8.39844 3.45703 8.51562 3.45703 8.63281L3.86719 12.6172L3.45703 16.4844C3.45703 16.543 3.33984 16.6602 3.28125 16.6602C3.16406 16.6602 3.10547 16.543 3.04688 16.4844L2.75391 12.6172L3.04688 8.63281C3.10547 8.51562 3.16406 8.39844 3.28125 8.39844ZM4.74609 8.28125C4.86328 8.28125 4.98047 8.39844 4.98047 8.51562L5.33203 12.6172L4.98047 16.6016C4.98047 16.7188 4.86328 16.7773 4.74609 16.7773C4.62891 16.7773 4.51172 16.7188 4.51172 16.6016L4.21875 12.6172L4.51172 8.51562C4.51172 8.39844 4.62891 8.28125 4.74609 8.28125ZM18.8672 1.77734C19.043 1.89453 19.1016 2.01172 19.1602 2.1875L19.3945 12.6172L19.1602 16.3672C19.1602 16.6602 18.9258 16.8945 18.6328 16.8945C18.3984 16.8945 18.1641 16.6602 18.1055 16.3672L18.0469 14.4922L17.9297 12.6172L18.1055 2.24609V2.1875C18.1055 2.07031 18.2227 1.89453 18.3398 1.83594C18.3984 1.77734 18.5156 1.71875 18.6328 1.71875C18.75 1.71875 18.8086 1.71875 18.8672 1.77734ZM17.3438 2.71484C17.4609 2.77344 17.5195 2.89062 17.5781 3.06641L17.7539 12.6172L17.5781 16.0742L17.5195 16.4258C17.5195 16.6016 17.5195 16.7188 17.4023 16.7773C17.3438 16.8359 17.2266 16.8945 17.0508 16.8945C16.9336 16.8945 16.8164 16.8359 16.6992 16.7188C16.6406 16.6602 16.582 16.543 16.582 16.4844V16.4258C16.4062 12.6172 16.4062 12.6172 16.4062 12.6172L16.582 3.18359V3.06641C16.582 2.89062 16.6992 2.77344 16.8164 2.71484C16.875 2.65625 16.9922 2.59766 17.0508 2.59766C17.168 2.59766 17.2266 2.65625 17.3438 2.71484ZM10.7812 4.00391C11.0156 4.00391 11.1328 4.17969 11.1328 4.35547L11.4258 12.6172L11.1328 16.543C11.1328 16.7188 11.0156 16.8945 10.7812 16.8945C10.6055 16.8945 10.4883 16.7188 10.4297 16.543L10.1953 12.6172L10.4297 4.35547C10.4297 4.17969 10.6055 4.00391 10.7812 4.00391ZM32.8711 7.69531C35.3906 7.69531 37.5 9.74609 37.4414 12.3242C37.4414 14.8438 35.3906 16.8945 32.8711 16.8945H20.0977C19.8047 16.8359 19.5703 16.6602 19.5703 16.3672V1.71875C19.5703 1.42578 19.6875 1.30859 20.0391 1.19141C20.918 0.839844 21.9141 0.664062 22.9688 0.664062C27.2461 0.664062 30.7031 3.88672 31.0547 8.04688C31.6406 7.8125 32.2266 7.69531 32.8711 7.69531ZM15.4688 4.17969C15.7031 4.17969 15.8789 4.35547 15.9375 4.58984L16.1719 12.6172L15.9375 16.4844C15.9375 16.7188 15.7031 16.8945 15.4688 16.8945C15.2344 16.8945 15.0586 16.7188 15 16.4844L14.8242 12.6172L15 4.58984C15.0586 4.35547 15.2344 4.17969 15.4688 4.17969ZM12.3633 3.71094C12.5391 3.71094 12.7148 3.88672 12.7148 4.0625L13.0078 12.6172L12.7148 16.543C12.7148 16.7188 12.5391 16.8945 12.3633 16.8945C12.1289 16.8945 12.0117 16.7188 11.9531 16.543L11.7188 12.6172L11.9531 4.0625C11.9531 3.88672 12.1289 3.71094 12.3633 3.71094ZM13.8867 3.88672C14.1211 3.88672 14.2969 4.0625 14.2969 4.29688L14.5312 12.6172L14.2969 16.4844C14.2969 16.7188 14.1211 16.8945 13.8867 16.8945C13.7109 16.8945 13.5352 16.7188 13.4766 16.4844L13.3008 12.6172L13.4766 4.29688C13.4766 4.0625 13.6523 3.88672 13.8867 3.88672Z" fill="white"/>
</svg>
