<svg width="30" height="30" viewBox="0 0 30 30" fill="none" xmlns="http://www.w3.org/2000/svg">
<path d="M14.5312 0.21875C22.5 0.21875 29.0625 6.78125 29.0625 14.75C29.0625 22.7773 22.5 29.2812 14.5312 29.2812C6.50391 29.2812 0 22.7773 0 14.75C0 6.78125 6.50391 0.21875 14.5312 0.21875ZM20.3906 21.6055C20.8594 21.6055 21.2695 21.2539 21.2695 20.7266C21.2695 20.1992 21.0938 19.9648 20.7422 19.7305C16.5234 17.2695 11.6602 17.1523 6.85547 18.207C6.38672 18.3242 6.03516 18.6172 6.03516 19.2031C6.03516 19.6719 6.38672 20.1406 6.97266 20.1406C7.14844 20.1406 7.44141 20.0234 7.67578 19.9648C11.8945 19.1445 16.1133 19.2031 19.8047 21.4297C19.9805 21.5469 20.1562 21.6055 20.3906 21.6055ZM21.9727 17.7969C22.6172 17.7969 23.0859 17.2695 23.1445 16.625C23.1445 16.1562 22.9102 15.7461 22.4414 15.5117C19.5703 13.7539 15.8789 12.8164 12.0703 12.8164C9.66797 12.8164 7.96875 13.168 6.32812 13.6367C5.74219 13.8125 5.44922 14.2227 5.44922 14.8086C5.44922 15.4531 5.97656 15.9805 6.5625 15.9805C6.85547 15.9805 6.97266 15.8633 7.26562 15.8047C12.1289 14.5156 17.5781 15.3945 21.2695 17.5625C21.4453 17.6211 21.6797 17.7969 21.9727 17.7969ZM23.7891 13.3438C24.4922 13.3438 25.1367 12.7578 25.1367 11.9375C25.1367 11.2344 24.8438 10.8828 24.375 10.6484C21.1523 8.71484 16.6406 7.83594 12.3633 7.83594C9.84375 7.83594 7.55859 8.12891 5.50781 8.71484C4.98047 8.89062 4.45312 9.30078 4.45312 10.1211C4.45312 10.8828 5.03906 11.5273 5.80078 11.5273C6.09375 11.5273 6.38672 11.4102 6.5625 11.3516C11.4258 10.0039 18.8672 10.5898 23.0273 13.1094C23.3203 13.2266 23.4961 13.3438 23.7891 13.3438Z" fill="white"/>
</svg>
